<svg xmlns="http://www.w3.org/2000/svg" width="360" height="360" viewBox="0 0 360 360">
  <defs>
    <filter id="dropshadow" x="-30%" y="-20%" width="160%" height="150%">
      <feDropShadow dx="0" dy="8" stdDeviation="7" flood-color="#000000" flood-opacity="0.16"/>
    </filter>
  </defs>
  <!-- 몸통·팔: 흰색으로 채워서 카카오톡 다크모드 배경에서도 실루엣이 살아있게 함
       (1차 시도는 fill:none이라 어두운 배경에서 거의 안 보이는 문제가 있었음 — 다듬으며 수정) -->
  <g filter="url(#dropshadow)">
    <g fill="#FFFFFF" stroke="#2B2B2B" stroke-width="9" stroke-linejoin="round" stroke-linecap="round">
      <path d="M128,238 C104,252 96,276 122,282 C142,286 152,268 148,252 M232,238 C256,252 264,276 238,282 C218,286 208,268 212,252"/>
      <path d="M180,60 C240,60 268,110 262,160 C258,196 240,214 230,230 C246,238 262,252 262,276 C262,300 232,312 180,312 C128,312 98,300 98,276 C98,252 114,238 130,230 C120,214 102,196 98,160 C92,110 120,60 180,60 Z"/>
    </g>
  </g>
  <path d="M128,124 Q140,112 154,120" fill="none" stroke="#2B2B2B" stroke-width="6" stroke-linecap="round"/><path d="M232,124 Q220,112 206,120" fill="none" stroke="#2B2B2B" stroke-width="6" stroke-linecap="round"/>
  <path d="M144,142 L160,158 M160,142 L144,158" stroke="#2B2B2B" stroke-width="6" stroke-linecap="round"/><path d="M200,142 L216,158 M216,142 L200,158" stroke="#2B2B2B" stroke-width="6" stroke-linecap="round"/>
  <path d="M156,180 L168,190 L180,178 L192,190 L204,180" fill="none" stroke="#2B2B2B" stroke-width="6" stroke-linecap="round"/>
  <ellipse cx="134" cy="172" rx="11" ry="7" fill="#FF8FA3" opacity="0.7"/><ellipse cx="226" cy="172" rx="11" ry="7" fill="#FF8FA3" opacity="0.7"/>
  <path d="M84,96 C78,110 82,124 92,124 C102,124 104,110 92,96 Z" fill="#7FD1E8" stroke="#3E9BB8" stroke-width="3"/><path d="M290,110 C286,120 289,130 296,130 C303,130 306,120 296,110 Z" fill="#7FD1E8" stroke="#3E9BB8" stroke-width="3"/>
  <text x="180" y="44" text-anchor="middle" font-family="Jua" font-size="32" fill="#2B2B2B" stroke="#ffffff" stroke-width="6" paint-order="stroke" stroke-linejoin="round">배 아파 ㅠㅠ</text>
</svg>
