<svg xmlns="http://www.w3.org/2000/svg" width="360" height="360" viewBox="0 0 360 360">
  <g fill="none" stroke="#2B2B2B" stroke-width="9" stroke-linecap="round" stroke-linejoin="round">
    <path d="M180,60 C240,60 268,110 262,160 C258,196 240,214 230,230 C246,238 262,252 262,276 C262,300 232,312 180,312 C128,312 98,300 98,276 C98,252 114,238 130,230 C120,214 102,196 98,160 C92,110 120,60 180,60 Z"/>
    <path d="M120,226 C90,232 150,250 150,236 M240,226 C270,232 210,250 210,236"/>
  </g>
  <path d="M136,132 L166,142" stroke="#2B2B2B" stroke-width="8" stroke-linecap="round"/><path d="M224,132 L194,142" stroke="#2B2B2B" stroke-width="8" stroke-linecap="round"/>
  <circle cx="152" cy="150" r="7" fill="#2B2B2B"/><circle cx="208" cy="150" r="7" fill="#2B2B2B"/>
  <path d="M162,186 L198,186" fill="none" stroke="#2B2B2B" stroke-width="7" stroke-linecap="round"/>
  <ellipse cx="134" cy="172" rx="11" ry="7" fill="#FF8FA3" opacity="0.7"/><ellipse cx="226" cy="172" rx="11" ry="7" fill="#FF8FA3" opacity="0.7"/>
  
  <text x="180" y="44" text-anchor="middle" font-family="Jua" font-size="32" fill="#2B2B2B" stroke="#ffffff" stroke-width="6" paint-order="stroke" stroke-linejoin="round">오늘은 파업</text>
</svg>
