<svg xmlns="http://www.w3.org/2000/svg" width="360" height="360" viewBox="0 0 360 360">
  <defs>
    <filter id="dropshadow" x="-30%" y="-20%" width="160%" height="150%">
      <feDropShadow dx="0" dy="8" stdDeviation="7" flood-color="#000000" flood-opacity="0.16"/>
    </filter>
  </defs>
  <!-- 몸통·손: 따뜻한 노란빛 화이트로 채워서 다크모드 배경에서도 실루엣이 살아있게 함
       (A7에서 확립한 규칙 — fill:none 금지, 반드시 solid fill) -->
  <g filter="url(#dropshadow)">
    <g fill="#FFF4D6" stroke="#2B2B2B" stroke-width="9" stroke-linejoin="round" stroke-linecap="round">
      <ellipse cx="152" cy="150" rx="17" ry="14"/><ellipse cx="208" cy="150" rx="17" ry="14"/>
      <path d="M180,42 C215,95 225,120 318,180 C225,240 215,265 180,318 C145,265 135,240 42,180 C135,120 145,95 180,42 Z"/>
    </g>
  </g>
  <path d="M134,116 Q144,110 154,116" fill="none" stroke="#2B2B2B" stroke-width="6" stroke-linecap="round"/><path d="M226,116 Q216,110 206,116" fill="none" stroke="#2B2B2B" stroke-width="6" stroke-linecap="round"/>
  <path d="M140,136 Q152,146 164,136" fill="none" stroke="#2B2B2B" stroke-width="6" stroke-linecap="round"/><path d="M196,136 Q208,146 220,136" fill="none" stroke="#2B2B2B" stroke-width="6" stroke-linecap="round"/>
  <path d="M160,164 Q180,180 200,164" fill="none" stroke="#2B2B2B" stroke-width="7" stroke-linecap="round"/>
  <ellipse cx="134" cy="158" rx="10" ry="6" fill="#FF8FA3" opacity="0.55"/><ellipse cx="226" cy="158" rx="10" ry="6" fill="#FF8FA3" opacity="0.55"/>
  
  <text x="180" y="38" text-anchor="middle" font-family="Jua" font-size="29" fill="#2B2B2B" stroke="#ffffff" stroke-width="6" paint-order="stroke" stroke-linejoin="round">또또 깜빡이</text>
</svg>
