<svg xmlns="http://www.w3.org/2000/svg" width="360" height="360" viewBox="0 0 360 360">
  <defs>
    <filter id="dropshadow" x="-30%" y="-20%" width="160%" height="150%">
      <feDropShadow dx="0" dy="8" stdDeviation="7" flood-color="#000000" flood-opacity="0.16"/>
    </filter>
  </defs>
  <!-- 몸통·손: 따뜻한 노란빛 화이트로 채워서 다크모드 배경에서도 실루엣이 살아있게 함
       (A7에서 확립한 규칙 — fill:none 금지, 반드시 solid fill) -->
  <g filter="url(#dropshadow)">
    <g fill="#FFF4D6" stroke="#2B2B2B" stroke-width="9" stroke-linejoin="round" stroke-linecap="round">
      <ellipse cx="78" cy="140" rx="16" ry="14"/><ellipse cx="282" cy="140" rx="16" ry="14"/>
      <path d="M180,42 C215,95 225,120 318,180 C225,240 215,265 180,318 C145,265 135,240 42,180 C135,120 145,95 180,42 Z"/>
    </g>
  </g>
  <path d="M130,110 Q142,98 156,108" fill="none" stroke="#2B2B2B" stroke-width="6" stroke-linecap="round"/><path d="M230,110 Q218,98 204,108" fill="none" stroke="#2B2B2B" stroke-width="6" stroke-linecap="round"/>
  <path d="M140,134 Q152,124 164,134" fill="none" stroke="#2B2B2B" stroke-width="6" stroke-linecap="round"/><path d="M196,134 Q208,124 220,134" fill="none" stroke="#2B2B2B" stroke-width="6" stroke-linecap="round"/>
  <path d="M160,164 Q180,180 200,164" fill="none" stroke="#2B2B2B" stroke-width="7" stroke-linecap="round"/>
  <ellipse cx="134" cy="158" rx="10" ry="6" fill="#FF8FA3" opacity="0.55"/><ellipse cx="226" cy="158" rx="10" ry="6" fill="#FF8FA3" opacity="0.55"/>
  <path d="M300,80 C294,72 282,74 282,84 C282,94 300,106 300,106 C300,106 318,94 318,84 C318,74 306,72 300,80 Z" fill="#FF8FA3"/>
  <text x="180" y="30" text-anchor="middle" font-family="Jua" font-size="27" fill="#2B2B2B" stroke="#ffffff" stroke-width="6" paint-order="stroke" stroke-linejoin="round">리마인더</text><text x="180" y="55" text-anchor="middle" font-family="Jua" font-size="27" fill="#2B2B2B" stroke="#ffffff" stroke-width="6" paint-order="stroke" stroke-linejoin="round">최고야</text>
</svg>
