<svg xmlns="http://www.w3.org/2000/svg" width="360" height="360" viewBox="0 0 360 360">
  <defs>
    <filter id="dropshadow" x="-30%" y="-20%" width="160%" height="150%">
      <feDropShadow dx="0" dy="8" stdDeviation="7" flood-color="#000000" flood-opacity="0.16"/>
    </filter>
  </defs>
  <!-- 몸통·팔: 복숭아빛 크림으로 채워서 카카오톡 다크모드 배경에서도 실루엣이 살아있게 함
       (A7에서 확립한 규칙 — fill:none 금지, 반드시 solid fill + 검정 테두리) -->
  <g filter="url(#dropshadow)">
    <g fill="#FFE3C4" stroke="#2B2B2B" stroke-width="9" stroke-linejoin="round" stroke-linecap="round">
      <path d="M120,226 C90,232 150,250 150,236 M240,226 C270,232 210,250 210,236"/>
      <path d="M180,60 C240,60 268,110 262,160 C258,196 240,214 230,230 C246,238 262,252 262,276 C262,300 232,312 180,312 C128,312 98,300 98,276 C98,252 114,238 130,230 C120,214 102,196 98,160 C92,110 120,60 180,60 Z"/>
    </g>
  </g>
  
  <circle cx="152" cy="150" r="7" fill="#2B2B2B"/><circle cx="208" cy="150" r="7" fill="#2B2B2B"/>
  <path d="M162,180 Q180,190 198,180" fill="none" stroke="#2B2B2B" stroke-width="6" stroke-linecap="round"/>
  <ellipse cx="134" cy="172" rx="11" ry="7" fill="#FF8FA3" opacity="0.7"/><ellipse cx="226" cy="172" rx="11" ry="7" fill="#FF8FA3" opacity="0.7"/>
  
  <text x="180" y="44" text-anchor="middle" font-family="Jua" font-size="32" fill="#2B2B2B" stroke="#ffffff" stroke-width="6" paint-order="stroke" stroke-linejoin="round">그래도 버텼다</text>
</svg>
